<svg xmlns="http://www.w3.org/2000/svg" version="1.1"><polyline points="269.0,5.5,269.5,9.5,268.0,11.5" stroke="black" stroke-width="2" fill="none" />
<polyline points="254.5,10.5,252.5,14.5,254.0,13.5,259.5,10.0,263.5,9.0,270.0,7.0,274.0,8.0,278.0,7.0,282.0,3.5,286.0,3.5,290.0,3.5,294.0,3.5,298.0,0.5,302.0,0.5,306.0,0.5,310.0,0.5,314.0,0.5,318.0,0.5,322.0,0.5,326.0,0.5,330.0,0.5,334.0,0.5,338.0,0.5,342.0,0.5,346.0,0.5,350.0,0.5,354.0,0.5,358.0,0.5,362.0,0.5,366.0,0.5,370.0,0.5,374.0,0.5,378.0,0.5,382.0,0.5,386.0,0.5,390.0,0.5,394.0,0.5,398.0,0.5,402.0,0.5,406.0,0.5,410.0,0.5,414.0,0.5,418.0,0.5,422.0,0.5,426.0,0.5,430.0,0.5,434.0,0.5,438.0,0.5,442.0,0.5,446.0,0.5,450.0,0.5,454.0,0.5,458.0,0.5,462.0,0.5,466.0,0.5,470.0,0.5,474.0,0.5,478.0,0.5,482.0,0.5,486.0,0.5,490.0,0.5,494.0,0.5,498.0,0.5,502.0,0.5,506.0,0.5,510.0,0.5" stroke="black" stroke-width="2" fill="none" />
<polyline points="501.5,174.0,507.0,178.0" stroke="black" stroke-width="2" fill="none" />
<polyline points="503.5,178.0,500.0,178.0,496.0,178.0" stroke="black" stroke-width="2" fill="none" />
<polyline points="400.0,193.5,396.0,193.0,392.0,193.0,388.0,193.0" stroke="black" stroke-width="2" fill="none" />
<polyline points="385.5,176.5,381.5,180.5,383.5,179.0,385.5,174.5" stroke="black" stroke-width="2" fill="none" />
<polyline points="391.0,173.5,387.0,173.0,386.5,177.0,385.0,174.0,386.0,170.0,387.0,166.0" stroke="black" stroke-width="2" fill="none" />
<polyline points="358.0,203.5,366.0,207.0,366.5,209.0,372.0,213.0,375.0,216.0" stroke="black" stroke-width="2" fill="none" />
<polyline points="380.0,227.0,381.5,227.5,380.0,227.5,379.5,231.5,381.5,233.5,383.0,238.0,381.0,242.0,383.0,245.5,381.5,249.5,382.5,251.5,380.5,251.0,386.0,249.0,387.0,251.0,386.0,255.0,384.5,259.0,386.5,259.0" stroke="black" stroke-width="2" fill="none" />
<polyline points="379.0,237.5,380.0,233.0" stroke="black" stroke-width="2" fill="none" />
<polyline points="381.5,245.5,377.5,252.0,374.5,256.5,374.5,255.5,372.0,251.5,371.5,247.5,373.0,245.0,370.0,241.0" stroke="black" stroke-width="2" fill="none" />
<polyline points="370.0,241.0,374.0,245.5,376.0,251.0,374.5,252.5" stroke="black" stroke-width="2" fill="none" />
<polyline points="377.0,253.0,379.5,249.0,382.0,245.0,383.5,241.0,379.5,240.0,381.5,235.5,378.5,234.5,377.5,228.5,379.0,224.5,380.0,220.5,380.5,216.5,378.0,213.0,374.0,211.0,370.0,209.0,366.0,206.5,362.0,204.5,358.0,203.5" stroke="black" stroke-width="2" fill="none" />
<polyline points="359.0,207.0,363.0,207.5" stroke="black" stroke-width="2" fill="none" />
<polyline points="345.0,231.5,341.0,230.0" stroke="black" stroke-width="2" fill="none" />
<polyline points="341.0,230.0,346.5,234.0,340.0,235.5,340.5,235.0,346.0,235.5,348.5,237.0" stroke="black" stroke-width="2" fill="none" />
<polyline points="344.0,238.0,340.0,238.5" stroke="black" stroke-width="2" fill="none" />
<polyline points="338.5,238.0,336.5,238.5,339.5,242.5" stroke="black" stroke-width="2" fill="none" />
<polyline points="336.0,237.0,337.5,235.5,344.0,240.5,350.0,243.0" stroke="black" stroke-width="2" fill="none" />
<polyline points="337.0,250.0,333.5,246.0,332.5,242.0,333.5,238.0" stroke="black" stroke-width="2" fill="none" />
<polyline points="338.5,212.0,334.5,212.0,330.5,213.0,326.5,213.0,322.5,213.5,318.5,214.0,314.5,213.5" stroke="black" stroke-width="2" fill="none" />
<polyline points="305.5,213.5,304.0,214.5,300.0,213.5,296.0,212.5,292.0,212.0,288.0,213.5" stroke="black" stroke-width="2" fill="none" />
<polyline points="290.5,214.0,294.0,218.0" stroke="black" stroke-width="2" fill="none" />
<polyline points="286.0,237.0,282.0,236.5,278.0,233.5,277.0,231.0,273.0,230.5" stroke="black" stroke-width="2" fill="none" />
<polyline points="273.0,230.5,275.5,234.5,278.0,238.5" stroke="black" stroke-width="2" fill="none" />
<polyline points="282.0,185.0,280.5,183.0,277.0,181.5,274.0,180.0,275.5,176.0,269.5,175.0" stroke="black" stroke-width="2" fill="none" />
<polyline points="269.5,179.0,273.5,180.5,277.5,180.0" stroke="black" stroke-width="2" fill="none" />
<polyline points="279.0,178.0,281.5,179.0,282.5,183.0,283.5,185.0,282.5,187.5" stroke="black" stroke-width="2" fill="none" />
<polyline points="280.0,181.0,276.0,182.5" stroke="black" stroke-width="2" fill="none" />
<polyline points="275.5,194.5,271.0,191.0,266.0,187.0,265.0,183.0,262.0,179.0" stroke="black" stroke-width="2" fill="none" />
<polyline points="261.0,182.0,257.5,181.0,253.0,179.0" stroke="black" stroke-width="2" fill="none" />
<polyline points="250.0,174.5,255.0,178.0,256.5,182.0,255.5,185.0" stroke="black" stroke-width="2" fill="none" />
<polyline points="257.0,186.0,253.0,187.5,249.5,183.0,245.5,180.0" stroke="black" stroke-width="2" fill="none" />
<polyline points="238.0,182.0,238.0,186.0,238.0,186.0" stroke="black" stroke-width="2" fill="none" />
<polyline points="245.0,190.5,245.5,194.5,240.5,194.5,244.5,193.5" stroke="black" stroke-width="2" fill="none" />
<polyline points="248.5,190.0,251.5,194.0,247.0,196.0,247.0,195.5,250.5,195.0,254.5,195.0" stroke="black" stroke-width="2" fill="none" />
<polyline points="231.0,181.5,227.0,182.0" stroke="black" stroke-width="2" fill="none" />
<polyline points="225.0,183.5,229.0,184.0" stroke="black" stroke-width="2" fill="none" />
<polyline points="233.0,178.5,227.5,176.0,223.5,177.0" stroke="black" stroke-width="2" fill="none" />
<polyline points="232.0,171.0,236.0,169.5" stroke="black" stroke-width="2" fill="none" />
<polyline points="238.5,165.5,237.5,169.5,240.0,171.5,237.5,175.5,234.5,181.0" stroke="black" stroke-width="2" fill="none" />
<polyline points="233.5,153.0,233.5,149.0,228.5,146.0" stroke="black" stroke-width="2" fill="none" />
<polyline points="227.5,149.0,228.5,153.0" stroke="black" stroke-width="2" fill="none" />
<polyline points="234.0,153.5,230.5,155.0,228.5,154.0,226.0,156.5,222.0,153.0,219.0,155.0,224.5,151.5,222.0,149.0,222.0,145.0" stroke="black" stroke-width="2" fill="none" />
<polyline points="213.0,153.5,211.5,157.5,209.0,159.0,213.5,155.0,216.0,156.0" stroke="black" stroke-width="2" fill="none" />
<polyline points="206.5,162.0,203.0,158.0,200.5,154.5,196.5,156.5,192.5,155.5" stroke="black" stroke-width="2" fill="none" />
<polyline points="195.0,164.0,191.0,163.5,187.0,164.0" stroke="black" stroke-width="2" fill="none" />
<polyline points="187.0,164.0,191.0,168.0,191.5,172.0,195.5,173.0,192.0,178.5,196.0,184.5,196.5,189.0,200.0,187.0,202.0,182.0" stroke="black" stroke-width="2" fill="none" />
<polyline points="199.5,180.0,201.5,180.0,202.0,184.0,206.0,189.0" stroke="black" stroke-width="2" fill="none" />
<polyline points="211.0,178.0,207.0,175.0" stroke="black" stroke-width="2" fill="none" />
<polyline points="209.5,177.0,207.5,177.0,203.5,175.5" stroke="black" stroke-width="2" fill="none" />
<polyline points="211.5,176.0,213.5,172.0,208.5,168.5" stroke="black" stroke-width="2" fill="none" />
<polyline points="195.0,174.0,190.0,172.0,188.0,173.0,184.0,169.5" stroke="black" stroke-width="2" fill="none" />
<polyline points="180.5,175.0,184.5,172.5,184.0,173.0,180.5,175.0,181.0,178.0,180.5,182.0,183.0,183.5,186.0,187.5,187.0,190.5,190.0,193.5,192.0,197.5,193.5,201.5,195.0,205.5,188.5,208.0,188.5,212.0,189.0,208.0,193.0,205.0" stroke="black" stroke-width="2" fill="none" />
<polyline points="201.5,205.5,202.5,209.5" stroke="black" stroke-width="2" fill="none" />
<polyline points="205.5,203.5,209.0,203.5,213.0,201.5" stroke="black" stroke-width="2" fill="none" />
<polyline points="195.0,214.5,197.5,219.0,201.5,223.0,207.0,227.0,209.0,231.0,210.0,234.5,212.0,238.5,214.0,242.5,214.5,246.5,215.5,250.5,215.0,254.5,215.0,258.5,215.0,262.5" stroke="black" stroke-width="2" fill="none" />
<polyline points="215.0,269.5,213.0,273.5,214.5,270.0" stroke="black" stroke-width="2" fill="none" />
<polyline points="216.0,255.0,220.0,254.5" stroke="black" stroke-width="2" fill="none" />
<polyline points="220.0,242.0,216.0,240.5,213.5,238.0,210.0,230.5,206.0,225.0,202.0,220.0,198.0,218.5" stroke="black" stroke-width="2" fill="none" />
<polyline points="184.0,213.0,180.0,212.5" stroke="black" stroke-width="2" fill="none" />
<polyline points="175.0,202.0,171.0,204.0" stroke="black" stroke-width="2" fill="none" />
<polyline points="164.5,204.0,165.0,208.0,162.0,211.5,158.5,213.0,159.0,218.5,160.5,217.0,162.5,211.0" stroke="black" stroke-width="2" fill="none" />
<polyline points="164.5,204.0,168.5,203.5,169.5,209.0,173.5,210.5" stroke="black" stroke-width="2" fill="none" />
<polyline points="185.5,195.5,188.0,196.0" stroke="black" stroke-width="2" fill="none" />
<polyline points="193.0,182.5,190.0,179.0" stroke="black" stroke-width="2" fill="none" />
<polyline points="211.0,183.5,211.0,181.5,211.0,177.0,211.5,173.0,210.0,171.0,207.5,167.5,206.0,164.0,206.5,157.5,203.0,150.5" stroke="black" stroke-width="2" fill="none" />
<polyline points="196.0,164.5,193.0,162.0,190.0,160.0,192.5,156.0,192.5,150.0,193.0,146.0,188.0,143.0,187.0,139.0,188.5,135.5,189.0,131.5,189.0,127.5" stroke="black" stroke-width="2" fill="none" />
<polyline points="151.0,128.0,151.0,132.0" stroke="black" stroke-width="2" fill="none" />
<polyline points="145.0,130.0,141.0,128.5,137.0,132.0,132.5,132.5,133.5,131.5,133.0,127.5,129.5,129.0" stroke="black" stroke-width="2" fill="none" />
<polyline points="119.5,131.0,118.5,130.5" stroke="black" stroke-width="2" fill="none" />
<polyline points="116.5,126.0,120.5,126.0" stroke="black" stroke-width="2" fill="none" />
<polyline points="130.0,44.0,126.0,44.5,122.0,45.5,119.0,48.0,115.0,45.5,111.0,46.5,107.0,47.0,103.0,46.5,99.0,48.0,95.0,47.0" stroke="black" stroke-width="2" fill="none" />
<polyline points="94.5,51.0,90.5,51.0,86.5,50.0,82.5,50.0,78.5,51.0,74.5,52.5,73.5,50.0,69.5,51.5,65.5,51.0,61.5,52.5,57.5,55.0,53.5,56.0" stroke="black" stroke-width="2" fill="none" />
<polyline points="54.0,51.0,49.5,51.0,45.5,51.5,41.5,50.5,36.5,50.0,30.0,50.0,26.0,51.0,22.0,50.0,18.0,51.0,14.0,49.0,13.0,47.5,9.0,48.0" stroke="black" stroke-width="2" fill="none" />
<polyline points="1.5,48.0,1.5,50.0,0.5,54.0,0.5,58.0,0.5,62.0,0.5,66.0,0.5,70.0,0.5,74.0,0.5,78.0,0.5,82.0,0.5,86.0,0.5,90.0,0.5,94.0,0.5,98.0,0.5,102.0,0.5,106.0,0.5,110.0,0.5,114.0,0.5,118.0,0.5,122.0,0.5,126.0,0.5,130.0,0.5,134.0,0.5,138.0,0.5,142.0,0.5,146.0,0.5,150.0,0.5,154.0,0.5,158.0" stroke="black" stroke-width="2" fill="none" />
<polyline points="0.0,207.5,0.5,208.5,0.5,212.5,0.5,212.5,5.5,211.5,9.5,211.0" stroke="black" stroke-width="2" fill="none" />
<polyline points="12.0,224.5,16.0,224.5,20.0,226.0,24.0,227.5,28.0,229.0" stroke="black" stroke-width="2" fill="none" />
<polyline points="25.0,234.5,21.5,238.5,24.5,241.5" stroke="black" stroke-width="2" fill="none" />
<polyline points="21.5,238.5,25.5,233.5,28.5,234.0,32.5,232.0,36.5,231.0,40.5,230.5,44.5,228.0,48.5,227.0,52.5,221.0" stroke="black" stroke-width="2" fill="none" />
<polyline points="52.5,213.0,56.5,212.0,61.0,211.0,62.5,209.0" stroke="black" stroke-width="2" fill="none" />
<polyline points="62.5,201.5,65.5,205.5,65.5,209.5,66.5,213.5,68.0,215.0" stroke="black" stroke-width="2" fill="none" />
<polyline points="73.0,213.0,77.0,214.5,78.5,214.0,81.0,218.0" stroke="black" stroke-width="2" fill="none" />
<polyline points="87.0,213.5,91.0,215.0,95.0,216.5,98.5,219.0,102.5,222.0,106.5,223.5,110.5,224.5,112.0,227.0,116.0,229.0" stroke="black" stroke-width="2" fill="none" />
<polyline points="109.0,244.0,105.0,244.0,101.0,244.5" stroke="black" stroke-width="2" fill="none" />
<polyline points="97.5,231.0,93.5,229.5" stroke="black" stroke-width="2" fill="none" />
<polyline points="73.0,229.0,69.0,229.5,65.0,230.0" stroke="black" stroke-width="2" fill="none" />
<polyline points="59.0,240.5,55.0,238.5" stroke="black" stroke-width="2" fill="none" />
<polyline points="59.5,240.5,58.5,238.0,54.0,237.0,50.0,236.0" stroke="black" stroke-width="2" fill="none" />
<polyline points="49.5,234.5,53.5,235.0,57.5,235.0,60.5,236.5,64.5,235.5" stroke="black" stroke-width="2" fill="none" />
<polyline points="87.5,218.5,83.5,213.0,79.5,210.0,75.5,207.0,71.5,205.5,67.5,205.0,63.5,201.5,59.5,201.5" stroke="black" stroke-width="2" fill="none" />
<polyline points="62.5,200.0,60.5,204.0,60.5,208.5,57.5,210.5,53.0,212.5,53.5,216.5,53.0,220.5,50.5,224.5" stroke="black" stroke-width="2" fill="none" />
<polyline points="76.5,208.5,78.5,212.5,82.0,214.5,82.0,218.5,86.5,221.0,92.0,222.0" stroke="black" stroke-width="2" fill="none" />
<polyline points="105.5,268.5,109.5,268.5" stroke="black" stroke-width="2" fill="none" />
<polyline points="104.0,273.0,108.0,272.5,112.0,271.0,116.0,271.0,119.5,270.0,123.5,270.5,127.0,270.5,131.0,270.0,134.5,271.0,138.5,268.5,142.5,265.5,146.5,264.5,150.5,263.0,154.0,261.0,158.0,260.5" stroke="black" stroke-width="2" fill="none" />
<polyline points="155.0,242.5,159.0,241.5" stroke="black" stroke-width="2" fill="none" />
<polyline points="159.0,238.0,155.0,239.0" stroke="black" stroke-width="2" fill="none" />
<polyline points="159.0,228.5,163.0,229.5,167.0,229.5" stroke="black" stroke-width="2" fill="none" />
<polyline points="180.0,236.5,177.0,240.5,178.0,247.5,176.5,251.5,176.5,255.5,182.5,257.0" stroke="black" stroke-width="2" fill="none" />
<polyline points="178.0,253.5,178.5,249.5" stroke="black" stroke-width="2" fill="none" />
<polyline points="177.0,240.5,181.0,238.5,185.0,238.0" stroke="black" stroke-width="2" fill="none" />
<polyline points="181.0,235.5,185.0,235.5,189.0,235.5" stroke="black" stroke-width="2" fill="none" />
<polyline points="203.0,257.0,202.5,261.0" stroke="black" stroke-width="2" fill="none" />
<polyline points="203.5,286.0,208.5,281.5,204.5,285.5,203.0,292.0,207.5,293.0,208.0,297.0,203.0,301.5,204.0,302.5,208.0,297.0" stroke="black" stroke-width="2" fill="none" />
<polyline points="212.0,298.0,211.5,301.0,213.0,300.0,211.0,295.5,207.0,291.5,203.0,289.5" stroke="black" stroke-width="2" fill="none" />
<polyline points="198.5,298.0,194.5,298.5,190.5,301.5" stroke="black" stroke-width="2" fill="none" />
<polyline points="193.0,302.0,194.0,304.0" stroke="black" stroke-width="2" fill="none" />
<polyline points="195.0,311.0,192.5,307.0,191.5,303.0,189.5,300.5,191.5,296.5,190.0,297.5" stroke="black" stroke-width="2" fill="none" />
<polyline points="219.5,297.0,224.5,297.5,224.0,301.5" stroke="black" stroke-width="2" fill="none" />
<polyline points="229.0,301.5,226.5,297.5,229.5,297.0,232.0,295.0,229.0,291.0,229.5,287.0,231.0,282.5,228.0,278.5,228.0,278.5" stroke="black" stroke-width="2" fill="none" />
<polyline points="221.0,292.5,225.0,295.5,229.0,296.0" stroke="black" stroke-width="2" fill="none" />
<polyline points="267.0,291.5,269.5,292.5" stroke="black" stroke-width="2" fill="none" />
<polyline points="274.5,304.0,279.5,308.5,277.5,312.5" stroke="black" stroke-width="2" fill="none" />
<polyline points="281.5,310.5,277.5,306.5" stroke="black" stroke-width="2" fill="none" />
<polyline points="281.0,311.5,277.0,313.0,273.0,314.5,269.0,315.0,265.0,315.5" stroke="black" stroke-width="2" fill="none" />
<polyline points="237.0,338.5,234.0,342.5,234.0,342.0" stroke="black" stroke-width="2" fill="none" />
<polyline points="212.0,358.5,211.0,362.5,208.5,366.5,208.5,370.5,209.0,375.0,207.0,378.5,207.5,382.5,208.5,386.5" stroke="black" stroke-width="2" fill="none" />
<polyline points="211.0,399.0,211.0,403.0" stroke="black" stroke-width="2" fill="none" />
<polyline points="207.0,432.0,203.0,432.5" stroke="black" stroke-width="2" fill="none" />
<polyline points="203.0,432.5,203.5,436.5,204.5,438.0" stroke="black" stroke-width="2" fill="none" />
<polyline points="235.5,432.5,238.0,428.5" stroke="black" stroke-width="2" fill="none" />
<polyline points="257.5,433.5,260.0,434.5" stroke="black" stroke-width="2" fill="none" />
<polyline points="271.5,438.5,271.0,442.5,273.0,444.5,276.0,448.5" stroke="black" stroke-width="2" fill="none" />
<polyline points="275.5,440.5,271.5,438.5" stroke="black" stroke-width="2" fill="none" />
<polyline points="282.0,440.5,282.5,444.5,275.0,445.5,279.0,444.5,282.5,443.5,285.0,441.0,289.0,442.0,293.5,445.5" stroke="black" stroke-width="2" fill="none" />
<polyline points="287.5,448.5,294.0,452.5,300.0,456.5,302.5,460.5,301.0,464.5,300.5,468.5,298.0,468.5" stroke="black" stroke-width="2" fill="none" />
<polyline points="297.5,466.0,293.5,466.0" stroke="black" stroke-width="2" fill="none" />
<polyline points="290.5,466.5,293.5,470.5" stroke="black" stroke-width="2" fill="none" />
<polyline points="291.0,482.0,295.0,481.5,299.0,480.5,303.0,480.0" stroke="black" stroke-width="2" fill="none" />
<polyline points="306.5,490.5,307.0,488.0,311.0,483.5,315.0,480.0,315.5,479.5,311.0,483.5,308.0,487.5,308.5,491.0,306.0,492.5,302.5,495.5,303.0,499.0,302.0,500.0,309.0,500.0,312.0,510.5,312.0,517.0,311.0,521.0,310.5,525.0" stroke="black" stroke-width="2" fill="none" />
<polyline points="313.5,528.0,315.5,524.0,313.5,528.0,313.0,532.0,312.5,536.0,314.5,539.0,312.5,542.0,314.0,545.5,312.0,549.5,314.0,553.5" stroke="black" stroke-width="2" fill="none" />
<polyline points="314.5,555.5,310.5,557.0" stroke="black" stroke-width="2" fill="none" />
<polyline points="311.5,554.5,310.5,558.5,313.5,564.0,313.5,565.0,318.0,564.0" stroke="black" stroke-width="2" fill="none" />
<polyline points="327.0,556.0,331.0,554.0" stroke="black" stroke-width="2" fill="none" />
<polyline points="330.0,552.0,326.0,549.5" stroke="black" stroke-width="2" fill="none" />
<polyline points="328.5,547.5,335.0,551.5,337.5,555.0,333.5,557.5,337.5,554.5" stroke="black" stroke-width="2" fill="none" />
<polyline points="331.5,535.0,327.5,533.5" stroke="black" stroke-width="2" fill="none" />
<polyline points="324.5,534.0,326.5,539.5,325.5,543.0,331.0,541.5,334.0,541.0,338.0,539.0,338.5,543.5,341.0,549.5" stroke="black" stroke-width="2" fill="none" />
<polyline points="329.5,528.5,325.5,529.0" stroke="black" stroke-width="2" fill="none" />
<polyline points="335.5,518.0,331.5,518.0,328.5,517.5,324.5,516.5,320.5,518.0,321.0,518.5,320.5,513.5,324.0,510.5,320.0,512.0" stroke="black" stroke-width="2" fill="none" />
<polyline points="313.0,518.5,317.0,518.5,321.5,521.5" stroke="black" stroke-width="2" fill="none" />
<polyline points="313.5,533.5,314.0,539.5,310.0,540.0" stroke="black" stroke-width="2" fill="none" />
<polyline points="287.0,522.0,283.0,522.5,279.0,519.5" stroke="black" stroke-width="2" fill="none" />
<polyline points="278.5,524.0,274.5,528.0,270.0,532.0,273.0,535.0,274.5,538.5,278.5,542.0,282.5,539.5,286.0,541.5,289.5,545.5" stroke="black" stroke-width="2" fill="none" />
<polyline points="277.0,544.0,276.5,539.0,272.5,540.5,268.5,541.5,264.5,540.5" stroke="black" stroke-width="2" fill="none" />
<polyline points="263.0,536.0,267.0,534.0,270.0,532.0,274.5,526.0,277.5,525.0,279.0,518.0,283.0,513.0,287.5,510.5,291.5,510.5,292.5,505.5" stroke="black" stroke-width="2" fill="none" />
<polyline points="294.0,509.5,292.5,505.5,294.5,501.5" stroke="black" stroke-width="2" fill="none" />
<polyline points="297.5,497.5,293.5,501.5,291.5,504.0,296.0,499.0,300.0,497.0,305.5,495.5" stroke="black" stroke-width="2" fill="none" />
<polyline points="284.0,506.0,285.0,509.0,283.0,513.0,279.5,517.5,277.0,521.5,276.0,524.0,272.0,528.0,268.5,531.0,263.5,535.0,266.0,540.0,267.5,544.0,264.5,547.5,266.0,545.5" stroke="black" stroke-width="2" fill="none" />
<polyline points="263.5,548.5,259.5,546.0,258.0,542.5,255.0,551.0,251.0,551.5,247.0,556.0,243.0,562.5,239.0,566.0,235.0,568.5,231.0,574.0,232.0,572.0,235.5,568.0,240.5,564.5,244.5,560.5,247.5,556.5,250.0,553.0,256.5,549.0,256.0,546.5,258.0,542.5" stroke="black" stroke-width="2" fill="none" />
<polyline points="255.0,556.5,259.0,558.5" stroke="black" stroke-width="2" fill="none" />
<polyline points="252.0,561.0,256.0,562.5,260.0,563.5,264.0,566.5,268.0,564.5,271.5,565.0,267.5,566.5" stroke="black" stroke-width="2" fill="none" />
<polyline points="271.5,559.5,267.5,560.0,265.0,562.5,270.0,558.5" stroke="black" stroke-width="2" fill="none" />
<polyline points="277.0,559.0,273.0,563.5,269.5,568.5,266.5,567.0,273.5,563.0,277.5,558.5,278.5,554.5" stroke="black" stroke-width="2" fill="none" />
<polyline points="279.5,534.0,275.0,532.0" stroke="black" stroke-width="2" fill="none" />
<polyline points="285.5,538.0,283.5,537.5,288.0,535.0,284.5,532.5,284.0,528.0,288.5,521.0,288.0,517.5,287.5,513.5" stroke="black" stroke-width="2" fill="none" />
<polyline points="270.5,494.0,271.0,492.5,271.0,489.5,267.0,486.5,263.0,485.0,259.0,491.0" stroke="black" stroke-width="2" fill="none" />
<polyline points="254.5,497.5,250.5,498.5" stroke="black" stroke-width="2" fill="none" />
<polyline points="253.0,502.5,253.0,506.5,254.0,510.5" stroke="black" stroke-width="2" fill="none" />
<polyline points="251.5,512.0,247.5,513.0" stroke="black" stroke-width="2" fill="none" />
<polyline points="248.5,512.5,247.5,516.5,246.5,520.5,247.0,524.5,247.5,528.0,248.0,531.5" stroke="black" stroke-width="2" fill="none" />
<polyline points="245.0,529.5,243.0,527.0,239.0,528.0,235.0,528.5" stroke="black" stroke-width="2" fill="none" />
<polyline points="241.0,523.5,237.0,524.5,233.0,525.0,230.5,523.0,226.5,524.0" stroke="black" stroke-width="2" fill="none" />
<polyline points="220.5,511.5,216.5,511.0,212.5,509.5,208.5,509.5" stroke="black" stroke-width="2" fill="none" />
<polyline points="200.5,517.0,197.0,517.5,196.0,516.5,192.0,515.0" stroke="black" stroke-width="2" fill="none" />
<polyline points="188.0,505.0,192.0,502.5,196.0,504.5,200.0,507.0,204.0,509.0,207.5,512.0,210.5,515.5,211.0,519.0,211.0,523.0,209.0,527.0" stroke="black" stroke-width="2" fill="none" />
<polyline points="209.0,526.5,205.0,527.0,201.0,529.0,197.5,531.5,194.0,533.0,190.0,534.0,186.0,532.5,182.5,534.5,184.5,532.5,185.5,528.0,184.5,527.0" stroke="black" stroke-width="2" fill="none" />
<polyline points="177.5,534.5,173.5,535.0" stroke="black" stroke-width="2" fill="none" />
<polyline points="176.5,536.5,176.0,540.5,177.5,544.5" stroke="black" stroke-width="2" fill="none" />
<polyline points="166.5,539.0,166.5,540.0,171.0,542.0,172.0,546.5,168.5,550.5,161.0,553.5,162.5,557.0" stroke="black" stroke-width="2" fill="none" />
<polyline points="160.0,554.5,164.0,553.5,168.0,551.0,172.0,546.0,174.5,544.0" stroke="black" stroke-width="2" fill="none" />
<polyline points="163.5,548.5,159.5,546.5" stroke="black" stroke-width="2" fill="none" />
<polyline points="160.0,542.5,156.0,543.5,152.5,548.0,155.5,546.5,154.5,542.5" stroke="black" stroke-width="2" fill="none" />
<polyline points="153.0,549.5,149.0,551.0,145.0,552.5" stroke="black" stroke-width="2" fill="none" />
<polyline points="145.5,557.0,149.5,555.0,152.0,554.5,148.5,555.5,144.0,559.0" stroke="black" stroke-width="2" fill="none" />
<polyline points="142.0,557.5,146.0,559.0,150.0,559.0,148.5,563.5,150.5,565.5,153.0,567.0,150.5,569.0,149.0,573.0,150.0,569.5" stroke="black" stroke-width="2" fill="none" />
<polyline points="149.0,561.0,153.0,561.5,157.0,562.5" stroke="black" stroke-width="2" fill="none" />
<polyline points="188.5,568.5,192.5,568.5" stroke="black" stroke-width="2" fill="none" />
<polyline points="206.5,577.5,210.5,572.0" stroke="black" stroke-width="2" fill="none" />
<polyline points="213.0,573.5,217.0,577.5,221.0,576.0" stroke="black" stroke-width="2" fill="none" />
<polyline points="220.5,576.5,222.5,572.5,222.0,568.5,219.0,568.5" stroke="black" stroke-width="2" fill="none" />
<polyline points="209.5,562.0,215.0,563.0,216.0,567.0,211.0,570.0,210.0,574.0,207.5,578.0,208.5,581.5,207.0,584.5,206.0,588.5,211.5,591.5,212.5,594.5,213.5,599.0,214.5,598.0" stroke="black" stroke-width="2" fill="none" />
<polyline points="210.5,607.0,214.5,609.0" stroke="black" stroke-width="2" fill="none" />
<polyline points="206.5,611.0,210.5,612.5,214.5,610.5,216.5,613.0,215.0,613.5,212.0,617.0,207.0,617.5,203.0,619.5" stroke="black" stroke-width="2" fill="none" />
<polyline points="199.0,606.5,195.0,606.5" stroke="black" stroke-width="2" fill="none" />
<polyline points="195.0,606.5,195.0,610.5,197.5,613.5,198.0,617.0,201.0,622.5,194.5,624.5,198.5,623.0" stroke="black" stroke-width="2" fill="none" />
<polyline points="200.0,613.0,192.0,612.5,188.5,611.0,184.5,613.0" stroke="black" stroke-width="2" fill="none" />
<polyline points="178.0,608.5,174.0,609.5,169.5,610.5,168.5,614.5" stroke="black" stroke-width="2" fill="none" />
<polyline points="171.0,605.5,175.0,606.0,179.0,605.0,183.0,603.5,181.0,604.0,181.0,609.0,185.0,606.5,184.0,607.5,185.0,612.5,190.5,616.5,190.5,621.5,191.5,625.5,183.0,631.5,187.0,630.0,185.0,630.5,187.5,628.0" stroke="black" stroke-width="2" fill="none" />
<polyline points="203.0,628.5,199.0,630.5,195.0,631.5,191.0,632.5,187.0,634.0,183.0,635.0,179.0,636.0,175.0,637.0,171.0,638.5" stroke="black" stroke-width="2" fill="none" />
<polyline points="173.0,637.5,171.5,641.5,174.0,645.5,174.5,649.5,173.5,653.5,170.0,657.5,169.5,661.0,166.5,665.0,160.5,666.0,156.0,670.0,154.5,674.0,152.0,678.0,150.0,681.5,153.5,676.5" stroke="black" stroke-width="2" fill="none" />
<polyline points="154.0,672.0,158.0,668.0,162.0,664.5,164.5,667.0,168.5,661.5,172.5,660.5,173.5,653.5" stroke="black" stroke-width="2" fill="none" />
<polyline points="163.0,668.5,163.0,672.5" stroke="black" stroke-width="2" fill="none" />
<polyline points="150.0,676.0,146.0,681.0,142.0,681.5,146.5,680.0,148.5,676.0" stroke="black" stroke-width="2" fill="none" />
<polyline points="131.5,651.0,127.5,652.0" stroke="black" stroke-width="2" fill="none" />
<polyline points="120.5,651.5,120.0,655.5" stroke="black" stroke-width="2" fill="none" />
<polyline points="105.0,667.0,100.0,665.5,96.0,666.5,92.0,663.0" stroke="black" stroke-width="2" fill="none" />
<polyline points="94.0,657.0,98.0,656.0" stroke="black" stroke-width="2" fill="none" />
<polyline points="94.0,634.0,90.0,634.5" stroke="black" stroke-width="2" fill="none" />
<polyline points="103.5,627.5,98.5,631.5,97.5,632.5,101.5,629.0,105.5,627.5,109.5,627.5,113.5,628.0,117.5,627.0,121.5,626.0,125.5,624.5,129.5,622.5,133.5,621.0" stroke="black" stroke-width="2" fill="none" />
<polyline points="133.0,621.0,124.0,625.0" stroke="black" stroke-width="2" fill="none" />
<polyline points="133.5,637.0,137.5,638.0,141.5,641.5" stroke="black" stroke-width="2" fill="none" />
<polyline points="137.0,646.0,137.0,650.0" stroke="black" stroke-width="2" fill="none" />
<polyline points="154.5,637.0,156.5,633.0,154.0,630.0,151.0,624.0,150.5,620.0,150.0,622.0" stroke="black" stroke-width="2" fill="none" />
<polyline points="151.5,619.0,154.0,623.0" stroke="black" stroke-width="2" fill="none" />
<polyline points="153.5,624.0,149.5,625.5" stroke="black" stroke-width="2" fill="none" />
<polyline points="147.0,618.5,146.0,622.5,146.5,626.5,151.0,632.5,151.0,632.5,155.0,632.0" stroke="black" stroke-width="2" fill="none" />
<polyline points="165.0,633.0,169.0,632.5,173.0,632.0,176.5,632.5,180.0,630.5,182.5,631.5" stroke="black" stroke-width="2" fill="none" />
<polyline points="165.5,624.5,161.5,620.5,157.5,618.5,154.0,622.0,156.5,620.0,152.5,617.5,154.5,613.5,153.0,609.5" stroke="black" stroke-width="2" fill="none" />
<polyline points="152.5,610.5,156.5,612.5" stroke="black" stroke-width="2" fill="none" />
<polyline points="154.0,615.0,150.0,618.0" stroke="black" stroke-width="2" fill="none" />
<polyline points="172.5,605.0,173.0,609.0,168.5,612.5,168.0,617.0,168.5,621.0,175.0,618.0,179.0,619.0,183.0,618.0,186.5,618.0,190.5,616.5,194.5,617.0,197.5,619.0,204.0,617.5,208.5,621.0,210.5,616.5,214.5,616.5" stroke="black" stroke-width="2" fill="none" />
<polyline points="229.0,615.5,233.0,616.5" stroke="black" stroke-width="2" fill="none" />
<polyline points="230.0,614.0,234.5,610.0" stroke="black" stroke-width="2" fill="none" />
<polyline points="231.0,607.0,229.0,611.0,231.5,612.5,235.5,610.5,239.5,611.0,243.5,615.0" stroke="black" stroke-width="2" fill="none" />
<polyline points="247.5,610.5,248.0,614.5,250.0,618.5" stroke="black" stroke-width="2" fill="none" />
<polyline points="254.5,610.5,258.0,607.0,262.0,601.0,254.0,597.5,253.5,594.5,258.0,591.0,260.0,590.5,257.5,584.5,259.0,579.0,260.5,575.0,265.5,572.5,262.0,576.5,258.0,580.5" stroke="black" stroke-width="2" fill="none" />
<polyline points="256.0,573.5,260.0,573.5" stroke="black" stroke-width="2" fill="none" />
<polyline points="245.5,571.5,246.0,575.5,245.5,576.0" stroke="black" stroke-width="2" fill="none" />
<polyline points="244.0,585.5,250.0,586.5,248.0,591.0,251.5,589.5,254.0,589.5" stroke="black" stroke-width="2" fill="none" />
<polyline points="257.5,593.0,253.5,594.5" stroke="black" stroke-width="2" fill="none" />
<polyline points="252.0,600.0,256.0,603.0,258.5,604.5,260.5,602.5,264.0,602.0" stroke="black" stroke-width="2" fill="none" />
<polyline points="275.5,599.0,276.0,603.0,274.5,603.5,277.5,601.5,284.0,599.0" stroke="black" stroke-width="2" fill="none" />
<polyline points="295.0,594.5,295.5,592.0,295.5,590.5" stroke="black" stroke-width="2" fill="none" />
<polyline points="293.0,582.0,292.5,580.0,288.5,582.0" stroke="black" stroke-width="2" fill="none" />
<polyline points="291.5,576.0,295.5,574.0" stroke="black" stroke-width="2" fill="none" />
<polyline points="338.0,524.5,333.5,521.0,336.5,517.5,335.5,513.5" stroke="black" stroke-width="2" fill="none" />
<polyline points="341.5,515.5,337.5,515.0,331.5,512.0,328.5,509.0,329.5,505.0,330.5,501.0,330.5,500.5" stroke="black" stroke-width="2" fill="none" />
<polyline points="329.5,467.5,330.0,466.5,329.5,470.5,334.5,467.5" stroke="black" stroke-width="2" fill="none" />
<polyline points="312.0,465.5,308.0,465.5,305.0,467.5,307.5,465.5" stroke="black" stroke-width="2" fill="none" />
<polyline points="289.5,437.0,285.5,439.0" stroke="black" stroke-width="2" fill="none" />
<polyline points="290.5,476.5,285.0,479.5,281.5,483.0,282.5,482.0,279.5,478.5,275.5,479.5,271.5,481.0" stroke="black" stroke-width="2" fill="none" />
<polyline points="273.5,485.5,277.0,481.5" stroke="black" stroke-width="2" fill="none" />
<polyline points="270.5,474.0,274.5,474.0,278.5,472.5,282.5,471.5,286.5,474.0,290.5,471.0,292.5,466.0,296.5,462.0" stroke="black" stroke-width="2" fill="none" />
<polyline points="272.5,486.5,270.5,490.0,266.5,493.5,262.5,497.5,261.0,501.0,263.0,497.0,259.0,492.0,261.0,488.0,263.5,484.0" stroke="black" stroke-width="2" fill="none" />
<polyline points="260.5,503.5,256.5,502.0,252.5,503.0" stroke="black" stroke-width="2" fill="none" />
<polyline points="247.0,491.0,243.0,488.5" stroke="black" stroke-width="2" fill="none" />
<polyline points="234.5,512.5,230.5,513.5,227.5,513.0,223.5,512.0,221.0,514.0,221.5,511.0,222.5,507.0" stroke="black" stroke-width="2" fill="none" />
<polyline points="196.5,531.0,196.5,535.0" stroke="black" stroke-width="2" fill="none" />
<polyline points="206.5,553.0,205.0,557.0,202.0,561.0" stroke="black" stroke-width="2" fill="none" />
<polyline points="207.5,587.5,205.5,591.5,201.5,593.5,197.5,593.0" stroke="black" stroke-width="2" fill="none" />
<polyline points="197.5,593.0,198.5,597.0,202.5,599.5,204.5,602.5,203.0,606.5,201.5,607.0" stroke="black" stroke-width="2" fill="none" />
<polyline points="142.5,568.0,138.5,568.0,134.5,567.0,131.0,562.0,129.5,564.0,127.5,563.5,123.5,563.5,119.5,563.5" stroke="black" stroke-width="2" fill="none" />
<polyline points="121.0,562.5,119.5,566.5,122.5,570.0,121.0,574.0" stroke="black" stroke-width="2" fill="none" />
<polyline points="119.0,581.0,123.0,578.5,119.0,581.0,115.0,582.5" stroke="black" stroke-width="2" fill="none" />
<polyline points="104.5,570.5,100.5,572.0" stroke="black" stroke-width="2" fill="none" />
<polyline points="101.0,574.0,101.5,570.0" stroke="black" stroke-width="2" fill="none" />
<polyline points="98.0,581.0,97.0,585.0,92.0,588.5,89.5,593.0,89.5,593.0,93.5,592.0" stroke="black" stroke-width="2" fill="none" />
<polyline points="93.0,589.0,89.0,590.0" stroke="black" stroke-width="2" fill="none" />
<polyline points="100.5,596.0,104.5,596.0" stroke="black" stroke-width="2" fill="none" />
<polyline points="106.0,600.0,102.0,600.0" stroke="black" stroke-width="2" fill="none" />
<polyline points="100.5,618.5,96.5,618.5" stroke="black" stroke-width="2" fill="none" />
<polyline points="74.5,643.5,80.5,644.0,78.0,648.0,75.5,650.0,79.5,647.5" stroke="black" stroke-width="2" fill="none" />
<polyline points="65.0,655.0,65.0,659.0,62.0,662.5,66.0,657.5" stroke="black" stroke-width="2" fill="none" />
<polyline points="52.5,670.5,48.5,670.5" stroke="black" stroke-width="2" fill="none" />
<polyline points="44.0,671.0,40.0,673.0" stroke="black" stroke-width="2" fill="none" />
<polyline points="34.0,670.5,38.0,673.5,42.0,675.5,42.0,679.5" stroke="black" stroke-width="2" fill="none" />
<polyline points="46.5,675.5,45.0,677.5,43.0,676.0,39.0,680.5,36.5,678.0,33.5,677.0,34.0,676.5,34.5,672.5,32.0,669.0,32.5,665.0,31.5,658.0,27.5,654.5" stroke="black" stroke-width="2" fill="none" />
<polyline points="25.5,642.5,26.0,641.5,25.0,638.0,26.0,634.5,25.0,635.5" stroke="black" stroke-width="2" fill="none" />
<polyline points="31.5,617.0,35.5,617.5,37.5,619.0,41.5,618.0,45.5,615.5" stroke="black" stroke-width="2" fill="none" />
<polyline points="41.0,605.5,45.0,603.0" stroke="black" stroke-width="2" fill="none" />
<polyline points="59.0,603.5,63.0,604.5,67.0,603.0" stroke="black" stroke-width="2" fill="none" />
<polyline points="70.0,590.5,62.5,594.5,53.5,598.0,50.0,602.5,46.5,607.5,47.0,611.5,44.5,613.5,45.0,608.5,46.0,606.0,50.0,604.0" stroke="black" stroke-width="2" fill="none" />
<polyline points="57.0,631.0,61.0,630.5" stroke="black" stroke-width="2" fill="none" />
<polyline points="10.5,614.0,10.5,618.0,13.5,614.0,17.5,613.5,21.5,613.5,25.5,612.0,29.5,611.0,33.5,609.5,37.5,608.5,42.0,604.5,46.0,603.5,50.0,601.0,54.0,598.0,58.0,596.5,62.0,595.0,66.0,593.0,70.0,590.5,74.0,589.5,78.0,588.5,82.0,588.0,86.0,587.5,90.0,586.5,95.0,586.0,98.0,581.0" stroke="black" stroke-width="2" fill="none" />
<polyline points="99.0,553.5,98.0,549.5,93.5,546.0,92.0,541.0,88.0,544.5" stroke="black" stroke-width="2" fill="none" />
<polyline points="92.5,544.5,96.5,543.5,97.5,539.0,101.5,537.0,102.0,540.0,106.0,540.0,110.0,542.5" stroke="black" stroke-width="2" fill="none" />
<polyline points="99.5,535.5,95.5,536.5" stroke="black" stroke-width="2" fill="none" />
<polyline points="91.0,534.5,84.5,538.5,82.0,541.5" stroke="black" stroke-width="2" fill="none" />
<polyline points="80.5,551.0,76.5,552.5" stroke="black" stroke-width="2" fill="none" />
<polyline points="69.0,550.5,68.5,551.0" stroke="black" stroke-width="2" fill="none" />
<polyline points="72.0,537.0,76.0,536.5,80.0,534.5,76.5,536.0,77.0,539.0,83.0,539.0,87.0,536.5,88.0,533.0,92.0,532.5" stroke="black" stroke-width="2" fill="none" />
<polyline points="91.5,523.5,90.0,521.5,86.0,524.0" stroke="black" stroke-width="2" fill="none" />
<polyline points="83.5,511.5,86.0,511.0,82.0,516.0,85.5,517.0,89.5,517.0,93.5,515.5,97.5,513.0,101.5,513.5" stroke="black" stroke-width="2" fill="none" />
<polyline points="101.0,515.5,97.0,515.0" stroke="black" stroke-width="2" fill="none" />
<polyline points="101.0,519.5,105.0,519.0,108.0,520.0,112.0,522.0,114.5,522.5" stroke="black" stroke-width="2" fill="none" />
<polyline points="118.5,522.5,119.0,522.0,110.5,518.5,114.5,515.0,114.0,512.0,120.0,508.0,124.5,504.0,125.5,503.5,121.5,507.5,117.5,509.0,113.5,511.0" stroke="black" stroke-width="2" fill="none" />
<polyline points="110.5,518.5,114.5,517.5,118.5,518.5" stroke="black" stroke-width="2" fill="none" />
<polyline points="111.0,528.5,107.0,533.0,110.5,529.0" stroke="black" stroke-width="2" fill="none" />
<polyline points="97.5,513.0,100.5,509.0" stroke="black" stroke-width="2" fill="none" />
<polyline points="89.0,506.5,85.0,507.0,81.0,507.5,77.0,508.5,73.0,510.5,69.0,512.5,65.0,514.0,61.0,516.0,69.5,512.0,78.0,508.0" stroke="black" stroke-width="2" fill="none" />
<polyline points="70.5,521.5,66.5,523.0" stroke="black" stroke-width="2" fill="none" />
<polyline points="56.0,522.5,58.0,520.5,55.5,524.5" stroke="black" stroke-width="2" fill="none" />
<polyline points="58.0,529.0,54.0,531.5" stroke="black" stroke-width="2" fill="none" />
<polyline points="51.0,535.0,55.0,534.5,55.5,541.0,54.5,541.0,58.5,539.5,62.0,538.0,66.0,537.0,69.5,539.5,72.0,540.5,76.0,542.5,80.0,543.0" stroke="black" stroke-width="2" fill="none" />
<polyline points="58.0,526.5,54.0,523.0,50.0,523.0" stroke="black" stroke-width="2" fill="none" />
<polyline points="44.0,515.5,40.0,516.5" stroke="black" stroke-width="2" fill="none" />
<polyline points="44.5,511.0,41.0,513.0,45.5,510.5,43.5,506.5" stroke="black" stroke-width="2" fill="none" />
<polyline points="36.0,510.5,40.0,506.5,46.5,503.0,49.0,499.0" stroke="black" stroke-width="2" fill="none" />
<polyline points="57.0,503.5,61.0,503.5,65.0,503.5,69.0,503.0" stroke="black" stroke-width="2" fill="none" />
<polyline points="57.0,498.0,53.0,499.0,49.0,499.0,47.0,503.0,41.5,505.5,37.5,509.5,33.5,511.0,29.5,513.0,25.5,516.0,21.5,519.0,17.5,520.0,15.5,518.0,11.5,518.5" stroke="black" stroke-width="2" fill="none" />
<polyline points="19.5,515.5,23.5,515.5,25.5,516.5" stroke="black" stroke-width="2" fill="none" />
<polyline points="21.5,537.0,25.5,538.5" stroke="black" stroke-width="2" fill="none" />
<polyline points="21.0,544.5,17.0,545.5" stroke="black" stroke-width="2" fill="none" />
<polyline points="21.0,550.5,21.5,554.5,17.5,559.5,14.0,561.0,4.5,564.0,8.5,563.0,12.5,561.5,16.5,558.5,18.0,559.5,22.0,556.5" stroke="black" stroke-width="2" fill="none" />
<polyline points="23.0,558.5,17.5,562.5,14.0,569.0,12.0,573.0,9.5,573.5,5.0,576.5,7.5,578.5" stroke="black" stroke-width="2" fill="none" />
<polyline points="2.0,577.0,6.0,577.0,9.5,571.0" stroke="black" stroke-width="2" fill="none" />
<polyline points="9.5,568.5,13.5,568.5,17.0,563.0,21.0,561.0" stroke="black" stroke-width="2" fill="none" />
<polyline points="25.5,569.5,29.5,569.0" stroke="black" stroke-width="2" fill="none" />
<polyline points="31.5,575.0,27.5,576.0" stroke="black" stroke-width="2" fill="none" />
<polyline points="43.0,570.0,44.0,569.0,46.0,565.0" stroke="black" stroke-width="2" fill="none" />
<polyline points="44.5,561.0,48.5,561.0,52.0,562.0" stroke="black" stroke-width="2" fill="none" />
<polyline points="53.5,551.0,49.0,545.0,45.0,548.5,41.0,548.0,37.0,548.5" stroke="black" stroke-width="2" fill="none" />
<polyline points="28.0,547.5,24.0,551.0,20.0,551.5,16.0,552.5,12.0,553.5,8.0,556.0,4.0,556.0,0.0,560.0" stroke="black" stroke-width="2" fill="none" />
<polyline points="0.0,563.0,4.0,563.0" stroke="black" stroke-width="2" fill="none" />
<polyline points="4.0,553.5,8.0,551.0" stroke="black" stroke-width="2" fill="none" />
<polyline points="10.5,554.0,10.5,555.5" stroke="black" stroke-width="2" fill="none" />
<polyline points="0.5,587.0,2.0,585.5,0.5,582.0,0.5,578.0,0.5,574.0,0.5,570.0,0.5,566.0,2.0,562.0,1.5,558.0,0.5,552.5,0.5,548.5,0.5,544.5,0.5,540.5,0.5,536.5,0.5,532.5,0.5,528.5,0.5,524.5,5.0,521.0,8.0,520.0,4.0,521.5,0.0,522.0" stroke="black" stroke-width="2" fill="none" />
<polyline points="46.0,538.0,46.0,542.0,49.5,544.5,45.0,548.5,48.0,553.5,52.0,553.5,55.0,551.5" stroke="black" stroke-width="2" fill="none" />
<polyline points="7.5,618.0,4.0,618.0,0.0,618.0" stroke="black" stroke-width="2" fill="none" />
<polyline points="0.5,618.0,0.5,622.0,0.5,626.0,0.5,630.0,0.5,634.0,0.5,638.0,0.5,642.0,0.5,646.0,0.5,650.0,0.5,654.0,0.5,658.0,0.5,662.0,0.5,666.0,0.5,670.0,1.5,674.0,3.5,677.5,0.5,680.5" stroke="black" stroke-width="2" fill="none" />
<polyline points="1.0,643.0,5.0,642.5,9.0,641.5" stroke="black" stroke-width="2" fill="none" />
<polyline points="116.0,676.5,111.5,680.0,112.0,679.5,116.0,676.5" stroke="black" stroke-width="2" fill="none" />
<polyline points="287.0,673.5,282.0,677.5,273.5,680.5,275.0,681.0,279.0,679.0,283.5,676.0,287.5,673.5,291.5,675.0,295.5,676.5" stroke="black" stroke-width="2" fill="none" />
<polyline points="301.0,671.0,301.0,671.0,297.0,674.5,296.0,679.5,295.0,681.0,298.5,677.0,301.0,673.0,304.0,669.0,305.0,665.0,306.5,661.0,307.5,657.0,306.0,656.5,302.0,657.0" stroke="black" stroke-width="2" fill="none" />
<polyline points="307.0,653.5,311.0,652.0,315.0,649.0,313.5,650.5" stroke="black" stroke-width="2" fill="none" />
<polyline points="321.0,651.0,325.0,651.0,328.5,645.5,332.5,642.5,335.5,636.0,339.5,633.0,343.5,630.5,347.5,627.5,351.5,624.5,355.5,622.0,359.5,619.5,363.5,616.0" stroke="black" stroke-width="2" fill="none" />
<polyline points="363.0,611.5,367.0,609.5,371.0,606.5" stroke="black" stroke-width="2" fill="none" />
<polyline points="367.0,624.0,361.0,628.0,359.0,629.0,363.0,627.0,367.0,624.0,371.0,625.0,375.0,625.5,379.0,625.5,383.0,625.5,387.0,622.0,391.0,621.5,395.0,621.5,398.5,622.5,402.5,623.0,406.5,627.0" stroke="black" stroke-width="2" fill="none" />
<polyline points="412.5,624.0,408.0,630.5,407.5,633.0,410.0,631.5,412.5,636.5,419.0,639.0,423.0,639.0" stroke="black" stroke-width="2" fill="none" />
<polyline points="424.5,636.0,428.0,637.0,432.0,641.0,432.5,645.0,434.5,649.0,437.0,651.0" stroke="black" stroke-width="2" fill="none" />
<polyline points="432.5,657.0,436.5,660.0,440.5,657.5,444.5,656.5" stroke="black" stroke-width="2" fill="none" />
<polyline points="436.5,664.5,436.5,668.5,437.0,672.5,435.0,676.5,434.5,680.5,426.0,679.5,430.0,680.5,433.0,681.5" stroke="black" stroke-width="2" fill="none" />
<polyline points="429.5,672.5,427.5,675.0,423.5,676.0,422.0,676.5" stroke="black" stroke-width="2" fill="none" />
<polyline points="417.0,671.5,414.0,667.5,412.5,666.0" stroke="black" stroke-width="2" fill="none" />
<polyline points="422.0,659.5,426.0,661.5,430.0,663.5" stroke="black" stroke-width="2" fill="none" />
<polyline points="430.0,652.0,426.0,652.0" stroke="black" stroke-width="2" fill="none" />
<polyline points="421.5,643.5,425.5,641.5" stroke="black" stroke-width="2" fill="none" />
<polyline points="417.5,647.0,412.5,645.0,411.5,645.5,411.0,641.5" stroke="black" stroke-width="2" fill="none" />
<polyline points="405.0,651.0,401.0,649.5" stroke="black" stroke-width="2" fill="none" />
<polyline points="397.0,637.0,398.5,636.5,399.0,640.5,403.5,644.5,396.5,647.5,400.5,646.0,405.5,648.5,412.5,652.5,414.0,656.5,406.5,659.5,410.5,659.5,414.5,655.5" stroke="black" stroke-width="2" fill="none" />
<polyline points="414.0,675.0,411.0,671.0,408.0,669.0,404.0,669.0,402.5,671.5,398.5,672.5" stroke="black" stroke-width="2" fill="none" />
<polyline points="397.0,643.0,393.0,643.0,389.0,639.5,385.0,639.5" stroke="black" stroke-width="2" fill="none" />
<polyline points="386.0,622.0,386.5,624.5,394.0,627.0,399.5,626.5,403.5,630.0" stroke="black" stroke-width="2" fill="none" />
<polyline points="404.5,619.0,400.5,618.0" stroke="black" stroke-width="2" fill="none" />
<polyline points="400.5,613.0,404.5,612.0,407.5,615.5,413.0,615.0" stroke="black" stroke-width="2" fill="none" />
<polyline points="414.0,611.0,410.5,612.0,406.5,610.0" stroke="black" stroke-width="2" fill="none" />
<polyline points="407.5,609.0,407.5,613.0,412.0,616.5,412.5,619.0,416.5,620.0,420.5,618.5,421.5,619.0,422.5,623.0,426.5,620.5,431.5,619.0" stroke="black" stroke-width="2" fill="none" />
<polyline points="423.0,616.5,418.5,622.5,419.0,629.5,419.5,636.0,424.5,641.5,422.0,648.5,426.0,648.5,430.0,648.0" stroke="black" stroke-width="2" fill="none" />
<polyline points="436.0,630.0,440.0,626.0,443.0,622.0,440.5,618.5,443.0,614.5,441.0,616.0,441.0,619.0" stroke="black" stroke-width="2" fill="none" />
<polyline points="442.5,606.0,446.5,607.5,450.0,612.0,454.0,616.0,458.0,618.0,462.0,622.5,466.0,622.0,470.0,619.5" stroke="black" stroke-width="2" fill="none" />
<polyline points="471.0,614.5,467.0,614.5" stroke="black" stroke-width="2" fill="none" />
<polyline points="470.5,610.0,471.5,614.0,468.0,616.0,469.0,620.0" stroke="black" stroke-width="2" fill="none" />
<polyline points="480.0,608.5,484.0,608.5,488.0,611.5" stroke="black" stroke-width="2" fill="none" />
<polyline points="488.0,605.5,492.0,605.5,496.5,608.5,500.5,613.5,506.5,615.0,510.5,612.5" stroke="black" stroke-width="2" fill="none" />
<polyline points="511.5,612.0,507.5,616.0" stroke="black" stroke-width="2" fill="none" />
<polyline points="500.5,621.5,504.5,622.0,508.5,622.5,510.5,627.0" stroke="black" stroke-width="2" fill="none" />
<polyline points="497.0,629.0,498.0,633.0,500.5,637.0,501.0,640.5" stroke="black" stroke-width="2" fill="none" />
<polyline points="497.0,635.5,493.0,636.0" stroke="black" stroke-width="2" fill="none" />
<polyline points="488.5,638.5,484.5,640.5" stroke="black" stroke-width="2" fill="none" />
<polyline points="490.0,619.0,494.0,619.0,498.0,617.0" stroke="black" stroke-width="2" fill="none" />
<polyline points="499.0,616.0,495.0,612.0,496.0,607.0,493.5,603.0" stroke="black" stroke-width="2" fill="none" />
<polyline points="496.0,598.5,500.0,598.5,504.0,600.0,507.0,605.0" stroke="black" stroke-width="2" fill="none" />
<polyline points="509.5,604.5,505.5,601.5" stroke="black" stroke-width="2" fill="none" />
<polyline points="510.0,592.0,505.5,591.0,502.5,587.0,502.0,586.5" stroke="black" stroke-width="2" fill="none" />
<polyline points="503.0,574.5,499.0,571.0" stroke="black" stroke-width="2" fill="none" />
<polyline points="496.5,575.0,492.5,574.0,488.5,575.5" stroke="black" stroke-width="2" fill="none" />
<polyline points="495.5,581.5,492.0,579.5,486.0,580.0,483.0,577.5,479.0,578.0" stroke="black" stroke-width="2" fill="none" />
<polyline points="484.0,588.0,488.0,589.5,494.5,593.5" stroke="black" stroke-width="2" fill="none" />
<polyline points="481.0,612.5,477.0,610.0,474.0,606.5,473.0,604.5,469.0,603.0,465.0,602.0,461.0,601.0" stroke="black" stroke-width="2" fill="none" />
<polyline points="463.5,607.5,460.5,606.0,458.0,601.5,454.0,602.0" stroke="black" stroke-width="2" fill="none" />
<polyline points="438.5,597.0,434.5,595.0" stroke="black" stroke-width="2" fill="none" />
<polyline points="431.5,585.0,427.5,583.0" stroke="black" stroke-width="2" fill="none" />
<polyline points="435.5,580.5,439.5,580.0,443.5,581.0,447.5,580.0,451.5,580.0,458.5,580.5,462.0,585.0,462.5,582.0,467.0,586.0,469.0,589.0" stroke="black" stroke-width="2" fill="none" />
<polyline points="470.5,584.5,468.5,583.5,470.0,579.5,467.5,575.5,462.5,572.0,459.5,568.5,454.5,566.0,447.5,563.5" stroke="black" stroke-width="2" fill="none" />
<polyline points="448.0,558.5,452.0,558.5,456.0,559.5" stroke="black" stroke-width="2" fill="none" />
<polyline points="464.0,560.0,468.0,562.5" stroke="black" stroke-width="2" fill="none" />
<polyline points="468.0,571.0,472.0,571.0" stroke="black" stroke-width="2" fill="none" />
<polyline points="478.5,561.5,482.5,565.5,486.5,566.5,489.5,564.0" stroke="black" stroke-width="2" fill="none" />
<polyline points="487.0,562.5,488.5,566.5,490.5,571.5,492.0,574.5,496.0,579.5" stroke="black" stroke-width="2" fill="none" />
<polyline points="509.5,575.0,508.0,570.5,504.0,571.5,503.5,571.5,504.5,567.5,503.5,565.0,501.0,561.0,496.5,561.0,492.5,558.5,489.0,555.0,486.0,550.5,480.0,549.0,476.0,547.0,473.0,547.0,469.0,547.0,465.0,545.5,461.0,541.0,465.5,534.5,459.5,530.5,453.0,529.0" stroke="black" stroke-width="2" fill="none" />
<polyline points="454.5,533.0,458.5,536.0,462.5,538.5,466.5,536.0" stroke="black" stroke-width="2" fill="none" />
<polyline points="472.5,541.0,479.0,544.0,480.0,548.0" stroke="black" stroke-width="2" fill="none" />
<polyline points="484.5,535.0,488.0,536.5,489.0,541.0,493.0,542.0,497.0,545.0,501.0,546.5,506.5,544.5,508.5,548.0" stroke="black" stroke-width="2" fill="none" />
<polyline points="508.5,537.5,504.5,537.5" stroke="black" stroke-width="2" fill="none" />
<polyline points="504.5,537.5,506.5,541.5,509.5,547.5,511.0,551.5" stroke="black" stroke-width="2" fill="none" />
<polyline points="505.0,542.5,503.0,540.0,499.5,538.0,495.5,534.0,491.5,533.5" stroke="black" stroke-width="2" fill="none" />
<polyline points="498.5,543.0,503.5,545.5,506.0,549.5" stroke="black" stroke-width="2" fill="none" />
<polyline points="508.5,520.5,503.5,520.0,500.5,519.0,496.5,519.5" stroke="black" stroke-width="2" fill="none" />
<polyline points="489.5,518.0,485.5,517.5" stroke="black" stroke-width="2" fill="none" />
<polyline points="477.5,520.5,473.5,519.5" stroke="black" stroke-width="2" fill="none" />
<polyline points="468.0,502.5,464.0,501.0" stroke="black" stroke-width="2" fill="none" />
<polyline points="452.0,504.5,456.0,506.5,461.5,510.5,465.5,511.0,469.0,514.0,472.0,514.5,475.0,515.0,478.5,516.0" stroke="black" stroke-width="2" fill="none" />
<polyline points="502.0,503.5,507.5,505.0" stroke="black" stroke-width="2" fill="none" />
<polyline points="507.0,505.5,503.0,505.5" stroke="black" stroke-width="2" fill="none" />
<polyline points="511.0,497.0,507.0,496.0,503.0,495.0,499.0,493.0,495.0,491.5,491.0,492.0,487.0,490.5,483.0,489.5,479.0,490.0,475.0,489.0,471.0,488.5,467.0,488.0,463.0,487.5,459.0,487.0,455.0,486.5,451.0,484.5,447.0,485.0,443.0,484.0,439.0,483.0,435.0,482.0,431.0,481.0,427.0,480.5,423.0,479.5,419.0,478.5,415.0,477.0,411.0,475.5,407.0,475.0,403.0,473.0,399.0,471.5,395.0,470.0,391.0,468.5,387.0,467.0,383.0,467.0" stroke="black" stroke-width="2" fill="none" />
<polyline points="378.5,472.0,374.5,469.5" stroke="black" stroke-width="2" fill="none" />
<polyline points="370.5,486.5,374.5,485.5,378.5,482.0,382.5,483.0,386.5,484.0,390.0,489.0,394.0,490.0" stroke="black" stroke-width="2" fill="none" />
<polyline points="390.0,500.5,394.0,501.0,398.5,501.0" stroke="black" stroke-width="2" fill="none" />
<polyline points="403.0,497.5,407.0,496.0,412.0,499.0,410.0,503.0,407.5,508.5,407.0,510.5" stroke="black" stroke-width="2" fill="none" />
<polyline points="405.0,506.5,409.0,506.0,416.0,508.0" stroke="black" stroke-width="2" fill="none" />
<polyline points="413.5,522.0,417.5,525.5,420.0,522.5" stroke="black" stroke-width="2" fill="none" />
<polyline points="417.5,528.5,423.0,530.5" stroke="black" stroke-width="2" fill="none" />
<polyline points="424.5,528.5,428.5,531.5,430.5,530.0,429.5,534.0,430.5,537.5,428.0,539.5,434.0,543.5,438.0,544.5,442.0,545.0" stroke="black" stroke-width="2" fill="none" />
<polyline points="443.5,552.0,449.0,555.0" stroke="black" stroke-width="2" fill="none" />
<polyline points="458.5,549.0,462.5,553.5,466.5,555.5,466.5,560.5,469.5,561.0" stroke="black" stroke-width="2" fill="none" />
<polyline points="480.0,565.5,474.5,562.0,473.5,559.5,472.0,557.0,467.5,553.0,461.0,549.0" stroke="black" stroke-width="2" fill="none" />
<polyline points="461.5,575.5,457.5,575.5,453.5,577.0" stroke="black" stroke-width="2" fill="none" />
<polyline points="452.5,580.0,456.5,582.0" stroke="black" stroke-width="2" fill="none" />
<polyline points="451.5,573.5,447.5,575.0,443.5,574.5,439.5,576.0,435.5,576.5" stroke="black" stroke-width="2" fill="none" />
<polyline points="436.0,570.5,432.0,571.0,428.0,568.5" stroke="black" stroke-width="2" fill="none" />
<polyline points="422.0,566.5,426.0,567.5,430.0,563.0,431.0,567.0,436.5,567.5,442.5,567.0,442.5,571.0,442.0,575.5,448.0,579.0" stroke="black" stroke-width="2" fill="none" />
<polyline points="443.0,565.5,439.0,563.0,435.0,562.0,433.5,557.5,431.0,555.5,426.0,551.5,420.0,550.5,416.0,549.5,412.0,547.0,408.0,545.5,404.0,546.5" stroke="black" stroke-width="2" fill="none" />
<polyline points="399.5,550.0,395.5,552.5" stroke="black" stroke-width="2" fill="none" />
<polyline points="395.0,564.0,391.0,568.0,387.0,572.0,387.5,571.5,385.5,568.5" stroke="black" stroke-width="2" fill="none" />
<polyline points="383.5,562.5,379.5,563.0" stroke="black" stroke-width="2" fill="none" />
<polyline points="378.5,566.5,382.5,564.5,379.5,569.0,380.5,573.0,382.5,576.5,377.5,580.0,376.5,584.0,375.0,588.0" stroke="black" stroke-width="2" fill="none" />
<polyline points="379.0,580.0,383.0,576.0,387.0,575.5,393.0,576.0" stroke="black" stroke-width="2" fill="none" />
<polyline points="410.0,570.5,414.0,572.0" stroke="black" stroke-width="2" fill="none" />
<polyline points="415.5,570.5,413.5,566.5" stroke="black" stroke-width="2" fill="none" />
<polyline points="396.5,557.0,392.5,555.5,388.5,555.0,384.5,556.5,380.5,556.0,379.5,557.0" stroke="black" stroke-width="2" fill="none" />
<polyline points="392.5,571.5,394.0,569.5,393.0,565.5,396.0,561.5,398.0,557.5,399.5,553.5,401.0,549.5,400.5,545.5,400.0,541.5,399.0,537.5,392.5,533.5" stroke="black" stroke-width="2" fill="none" />
<polyline points="395.5,532.0,399.5,531.5,403.5,529.0" stroke="black" stroke-width="2" fill="none" />
<polyline points="406.0,529.0,407.0,528.0,404.0,525.5,405.0,521.5,405.5,519.5,401.5,520.0" stroke="black" stroke-width="2" fill="none" />
<polyline points="401.5,516.0,403.0,512.0" stroke="black" stroke-width="2" fill="none" />
<polyline points="397.0,509.5,393.0,507.5,389.0,509.0" stroke="black" stroke-width="2" fill="none" />
<polyline points="379.5,509.5,381.5,510.5,387.5,514.5,390.5,518.5,395.5,522.5" stroke="black" stroke-width="2" fill="none" />
<polyline points="396.5,529.0,392.5,528.5,388.5,529.5,385.0,530.0,385.0,526.0" stroke="black" stroke-width="2" fill="none" />
<polyline points="384.5,526.5,380.5,528.0,379.0,520.0" stroke="black" stroke-width="2" fill="none" />
<polyline points="377.0,514.0,377.0,510.0,379.5,508.0,381.0,506.5,378.5,502.5" stroke="black" stroke-width="2" fill="none" />
<polyline points="380.0,497.0,376.0,496.0" stroke="black" stroke-width="2" fill="none" />
<polyline points="373.5,489.5,375.0,493.5,374.5,497.5,375.5,502.0,376.5,506.0,377.0,508.5,375.0,512.5,378.0,515.5,378.0,520.5,376.5,524.5,378.0,525.5,377.5,529.5,379.0,531.5,379.0,535.5,379.0,539.5,379.0,543.5,379.0,548.5,378.5,552.5,378.5,556.5,379.0,560.5,380.5,563.0,378.5,567.0,378.0,571.0,377.0,575.0,376.0,579.0,375.0,583.0,375.5,589.5,375.5,593.5,375.0,597.5,374.5,601.5,372.0,605.5,367.0,609.5,365.0,613.5,361.5,617.5,356.5,621.5,350.5,625.5,344.5,629.5,339.0,633.5,335.0,637.5,334.0,641.5,328.0,645.5,326.0,649.5,323.5,655.5" stroke="black" stroke-width="2" fill="none" />
<polyline points="318.5,667.0,323.0,665.0,323.0,669.0" stroke="black" stroke-width="2" fill="none" />
<polyline points="318.0,668.0,320.0,672.0,320.0,676.0" stroke="black" stroke-width="2" fill="none" />
<polyline points="318.0,675.5,314.0,675.5" stroke="black" stroke-width="2" fill="none" />
<polyline points="298.5,666.5,299.5,665.0,298.5,669.0,297.5,673.0,300.5,674.0,304.5,668.5,306.5,662.5,313.5,658.0,317.5,658.5,321.5,655.5" stroke="black" stroke-width="2" fill="none" />
<polyline points="346.0,640.5,344.0,644.0,346.5,640.0" stroke="black" stroke-width="2" fill="none" />
<polyline points="367.5,651.5,371.0,655.5,372.0,659.0,375.0,655.5,380.5,659.5" stroke="black" stroke-width="2" fill="none" />
<polyline points="369.0,658.5,365.0,655.5" stroke="black" stroke-width="2" fill="none" />
<polyline points="364.5,678.0,370.5,675.5,373.0,679.5,373.0,681.5,377.0,680.5,381.0,679.5" stroke="black" stroke-width="2" fill="none" />
<polyline points="404.0,611.5,402.5,615.5,407.5,619.0,407.0,624.5,415.5,628.0,417.0,630.5,419.5,629.0,423.5,629.5,426.0,633.5,430.0,632.5,434.0,631.0,438.0,627.5,442.0,625.5" stroke="black" stroke-width="2" fill="none" />
<polyline points="434.0,617.5,435.5,613.5,435.0,609.5,432.5,605.5" stroke="black" stroke-width="2" fill="none" />
<polyline points="423.0,599.5,421.0,600.5,421.5,596.5" stroke="black" stroke-width="2" fill="none" />
<polyline points="407.0,602.0,403.0,606.0,404.0,605.0" stroke="black" stroke-width="2" fill="none" />
<polyline points="403.0,602.5,400.5,598.5" stroke="black" stroke-width="2" fill="none" />
<polyline points="419.5,548.5,420.5,544.5" stroke="black" stroke-width="2" fill="none" />
<polyline points="413.0,527.0,417.5,531.0,417.5,532.5,423.0,534.5,429.5,532.5,431.5,536.5,435.0,531.5" stroke="black" stroke-width="2" fill="none" />
<polyline points="437.0,532.0,437.5,527.5,436.0,526.0,432.0,526.5" stroke="black" stroke-width="2" fill="none" />
<polyline points="438.5,502.0,434.5,500.5" stroke="black" stroke-width="2" fill="none" />
<polyline points="384.5,496.5,383.0,498.5,384.5,495.0,380.0,492.5,376.5,488.5" stroke="black" stroke-width="2" fill="none" />
<polyline points="392.0,472.5,391.5,476.5,393.0,480.5,393.0,483.5,394.5,487.0,396.0,494.0,399.5,497.5,396.0,501.5,399.5,505.0,398.5,509.0" stroke="black" stroke-width="2" fill="none" />
<polyline points="385.5,446.0,381.5,445.0" stroke="black" stroke-width="2" fill="none" />
<polyline points="385.5,438.0,387.0,442.0,387.5,446.0,384.5,450.5,382.0,455.0,383.5,458.5,383.5,462.5,383.0,469.0,381.0,470.5" stroke="black" stroke-width="2" fill="none" />
<polyline points="389.5,440.0,385.5,438.0" stroke="black" stroke-width="2" fill="none" />
<polyline points="391.5,435.5,392.0,431.5" stroke="black" stroke-width="2" fill="none" />
<polyline points="407.0,414.5,409.0,408.0,407.5,408.0,408.0,404.0,409.5,399.0,409.5,392.0,410.0,388.0,410.0,384.0,409.5,379.5,411.0,378.5,410.0,374.5,410.5,370.5,409.5,366.5,410.0,362.5,409.5,359.0,411.5,355.0,412.0,351.0,408.0,351.5" stroke="black" stroke-width="2" fill="none" />
<polyline points="407.0,361.0,407.5,357.0,408.0,353.0,409.5,349.0,410.5,345.0,410.0,341.0,409.0,337.0,409.5,333.0,409.5,329.0,411.5,325.5,414.5,324.0,415.5,320.0,416.5,314.5,415.5,313.0,410.0,313.5" stroke="black" stroke-width="2" fill="none" />
<polyline points="410.5,315.0,410.0,319.0" stroke="black" stroke-width="2" fill="none" />
<polyline points="412.5,317.5,411.5,321.5,414.0,326.5,413.0,330.5,412.0,334.5" stroke="black" stroke-width="2" fill="none" />
<polyline points="407.0,369.0,408.0,373.0,408.0,379.5,407.0,385.5" stroke="black" stroke-width="2" fill="none" />
<polyline points="329.5,426.5,325.5,422.0,321.5,418.5" stroke="black" stroke-width="2" fill="none" />
<polyline points="320.0,408.5,316.0,407.0,312.0,404.0,308.0,402.5" stroke="black" stroke-width="2" fill="none" />
<polyline points="302.0,393.0,298.0,393.5,294.0,394.0,290.0,392.5,286.0,390.5,282.0,389.0,278.0,387.0,274.0,385.0,270.0,383.0,266.0,381.5,262.0,380.5,258.0,379.5,254.0,378.5,250.0,377.5,246.0,376.5,242.0,374.5,238.0,373.0,234.0,372.5,230.0,371.5,226.0,370.5,222.0,370.0,218.0,369.5,214.0,367.0" stroke="black" stroke-width="2" fill="none" />
<polyline points="209.0,357.0,208.5,361.0,210.0,365.0,210.0,369.0,212.0,371.0,216.5,375.0,214.0,379.0,211.5,380.0,213.0,384.0,213.5,387.0,210.5,390.5,209.5,394.5,209.5,398.5,209.0,402.5,208.5,406.5,207.5,410.5,206.5,414.5,206.0,418.5,207.5,421.5,208.5,425.5,209.5,429.0,209.0,433.0" stroke="black" stroke-width="2" fill="none" />
<polyline points="183.5,489.0,182.5,493.0" stroke="black" stroke-width="2" fill="none" />
<polyline points="185.5,496.5,184.0,500.5,184.5,503.5,183.5,507.0,188.0,509.5,190.0,513.5,188.0,514.5,190.5,518.5,192.0,522.5" stroke="black" stroke-width="2" fill="none" />
<polyline points="125.0,496.5,121.0,495.5" stroke="black" stroke-width="2" fill="none" />
<polyline points="121.5,494.5,121.0,498.5" stroke="black" stroke-width="2" fill="none" />
<polyline points="143.5,441.5,139.5,437.5,139.0,433.5,137.5,430.5,137.0,431.5,133.0,431.0" stroke="black" stroke-width="2" fill="none" />
<polyline points="137.5,422.5,133.5,421.0" stroke="black" stroke-width="2" fill="none" />
<polyline points="121.5,426.5,120.5,431.5,122.0,432.5" stroke="black" stroke-width="2" fill="none" />
<polyline points="127.0,417.0,134.5,418.0,135.5,417.0,131.0,416.5,129.0,420.5,125.0,420.0,122.5,417.5,121.5,413.5,119.0,414.5" stroke="black" stroke-width="2" fill="none" />
<polyline points="119.0,414.5,119.5,418.5,119.5,422.5,121.5,426.5" stroke="black" stroke-width="2" fill="none" />
<polyline points="131.0,426.5,126.0,422.5,127.5,420.0,125.5,416.5,128.0,412.5,121.5,412.0,117.5,412.0" stroke="black" stroke-width="2" fill="none" />
<polyline points="109.5,421.5,105.5,420.0" stroke="black" stroke-width="2" fill="none" />
<polyline points="100.0,414.0,100.0,410.5,104.0,407.0,102.5,411.0,103.0,416.0,98.5,417.0,98.5,421.0,97.5,425.0,98.5,430.0,96.5,435.5,102.5,439.5,105.0,438.5" stroke="black" stroke-width="2" fill="none" />
<polyline points="103.5,431.5,100.0,433.0,96.0,434.0" stroke="black" stroke-width="2" fill="none" />
<polyline points="93.5,435.5,97.5,438.5,103.5,434.5,107.5,434.5" stroke="black" stroke-width="2" fill="none" />
<polyline points="95.0,439.0,92.5,437.0,91.0,434.0,90.0,430.0,91.5,426.0,88.5,424.0,89.5,420.0,89.0,420.5" stroke="black" stroke-width="2" fill="none" />
<polyline points="91.5,414.0,87.0,417.0,86.5,417.5,92.0,413.5" stroke="black" stroke-width="2" fill="none" />
<polyline points="78.0,422.0,82.0,422.0,82.0,426.5,82.5,430.5,82.0,434.5,85.5,438.0" stroke="black" stroke-width="2" fill="none" />
<polyline points="57.5,415.0,54.0,417.5,52.0,413.5,54.5,409.5,51.5,413.0" stroke="black" stroke-width="2" fill="none" />
<polyline points="30.5,429.5,29.5,433.5,30.5,431.0" stroke="black" stroke-width="2" fill="none" />
<polyline points="22.0,438.0,20.5,443.0,21.5,439.0,22.0,440.5" stroke="black" stroke-width="2" fill="none" />
<polyline points="18.0,434.0,18.0,430.0" stroke="black" stroke-width="2" fill="none" />
<polyline points="16.5,426.0,13.5,428.5,9.5,431.5" stroke="black" stroke-width="2" fill="none" />
<polyline points="9.5,440.5,9.5,435.5,9.5,431.5,14.5,427.5,14.5,425.0,13.0,421.0" stroke="black" stroke-width="2" fill="none" />
<polyline points="14.5,415.0,18.5,414.5,19.0,418.5" stroke="black" stroke-width="2" fill="none" />
<polyline points="28.0,414.5,24.0,415.0,20.0,416.5,28.5,413.5,19.5,411.5,16.0,407.5" stroke="black" stroke-width="2" fill="none" />
<polyline points="8.5,375.5,4.5,373.0" stroke="black" stroke-width="2" fill="none" />
<polyline points="0.5,350.5,0.5,354.5,0.5,358.5,0.5,362.5,0.5,366.5,0.5,370.5,0.5,374.5,0.5,378.5,0.5,382.5,0.5,386.5,0.5,390.5,0.5,394.5,0.5,398.5,0.5,402.5,0.5,406.5,0.5,410.5,0.5,414.5,0.5,418.5" stroke="black" stroke-width="2" fill="none" />
<polyline points="32.0,369.0,36.0,370.5,41.0,370.0,47.5,370.5,51.0,367.0" stroke="black" stroke-width="2" fill="none" />
<polyline points="61.5,373.5,65.5,376.0,69.0,375.5,72.5,375.0,76.5,375.0,80.0,372.0,83.5,375.5,87.0,375.5" stroke="black" stroke-width="2" fill="none" />
<polyline points="129.5,375.0,127.5,378.0,130.5,374.0" stroke="black" stroke-width="2" fill="none" />
<polyline points="90.0,313.5,86.0,315.5" stroke="black" stroke-width="2" fill="none" />
<polyline points="90.0,320.0,89.5,317.0,87.5,314.5,85.5,311.5,82.0,307.5,80.5,303.5" stroke="black" stroke-width="2" fill="none" />
<polyline points="82.0,296.0,86.0,296.5,90.0,297.5,94.0,297.0,98.0,297.0,102.0,299.5,106.0,302.0,110.0,305.0" stroke="black" stroke-width="2" fill="none" />
<polyline points="94.5,290.0,90.5,289.0" stroke="black" stroke-width="2" fill="none" />
<polyline points="87.0,275.0,91.0,274.0" stroke="black" stroke-width="2" fill="none" />
<polyline points="109.5,277.0,109.5,275.5,114.5,280.0" stroke="black" stroke-width="2" fill="none" />
<polyline points="139.5,269.0,136.5,269.0,138.5,271.0,142.5,271.5" stroke="black" stroke-width="2" fill="none" />
<polyline points="92.0,285.5,88.0,285.5,84.0,285.5,80.0,285.5,76.0,284.0,72.0,284.0,70.0,282.0,66.0,282.0,62.0,282.5,58.0,282.0,54.0,282.0,50.0,282.5,46.0,284.0,40.5,282.0,36.5,282.5,32.5,283.0" stroke="black" stroke-width="2" fill="none" />
<polyline points="38.0,280.5,42.0,280.0,45.5,280.0,49.5,279.5,53.5,280.0,57.5,279.5,61.5,279.5,65.5,279.0,68.5,279.5,72.5,277.5,73.5,278.5,78.5,276.5" stroke="black" stroke-width="2" fill="none" />
<polyline points="81.0,290.5,77.0,289.5,73.0,289.0,69.0,288.5" stroke="black" stroke-width="2" fill="none" />
<polyline points="72.0,304.5,68.0,305.0" stroke="black" stroke-width="2" fill="none" />
<polyline points="55.5,308.0,51.0,308.5,47.0,309.5,43.0,310.0,39.0,311.0" stroke="black" stroke-width="2" fill="none" />
<polyline points="49.5,294.5,47.5,296.5,48.0,292.5" stroke="black" stroke-width="2" fill="none" />
<polyline points="39.0,289.5,40.0,287.5,32.5,283.5,26.0,284.0,22.0,285.0,18.0,285.5,14.0,285.5,10.0,286.5,6.0,287.0,2.0,288.0" stroke="black" stroke-width="2" fill="none" />
<polyline points="0.0,350.0,4.0,352.5,8.0,356.0,12.0,359.5,16.0,362.0,20.0,364.0,24.0,364.5,28.0,364.5,32.0,364.5,36.0,364.0,40.0,364.0,44.0,364.0,48.0,364.0,52.0,363.5,56.0,363.5,60.0,363.5,64.0,363.5,68.0,363.5,72.0,363.5,76.0,363.0,80.0,362.5,84.0,362.5,88.0,362.0,92.0,362.0,96.0,361.5,100.0,362.0,104.0,362.0,108.0,362.0,112.0,362.5,116.0,363.5,120.0,363.5,124.0,363.5,128.0,364.0,132.0,364.5,136.0,364.5" stroke="black" stroke-width="2" fill="none" />
<polyline points="154.5,216.0,154.5,220.0,156.5,216.0" stroke="black" stroke-width="2" fill="none" />
<polyline points="218.5,238.0,222.5,238.0,226.5,238.5,233.0,238.0,234.0,239.5,239.5,237.0,243.5,236.5,247.5,235.5,251.5,236.0" stroke="black" stroke-width="2" fill="none" />
<polyline points="223.0,242.5,221.0,238.5" stroke="black" stroke-width="2" fill="none" />
<polyline points="320.0,183.0,324.0,182.5,326.5,184.0,331.0,180.5,335.0,180.5,337.5,181.0,340.0,178.5" stroke="black" stroke-width="2" fill="none" />
<polyline points="410.5,262.0,417.5,266.0,421.0,270.0,423.0,274.5,424.5,275.5,428.5,277.5,435.5,279.5" stroke="black" stroke-width="2" fill="none" />
<polyline points="421.5,273.5,418.5,266.5,414.5,263.5,410.5,262.0" stroke="black" stroke-width="2" fill="none" />
<polyline points="453.5,280.5,453.5,283.5,455.5,285.0" stroke="black" stroke-width="2" fill="none" />
<polyline points="457.5,284.0,453.5,280.5" stroke="black" stroke-width="2" fill="none" />
<polyline points="476.0,287.0,480.0,288.0,484.0,289.0" stroke="black" stroke-width="2" fill="none" />
<polyline points="491.0,289.0,495.0,291.5,497.0,293.5" stroke="black" stroke-width="2" fill="none" />
<polyline points="496.5,301.5,492.5,301.0,488.5,299.0" stroke="black" stroke-width="2" fill="none" />
<polyline points="485.0,304.0,486.5,301.5,485.5,305.5,486.0,308.5,483.0,310.5,486.0,308.5,490.5,312.0,494.5,312.5" stroke="black" stroke-width="2" fill="none" />
<polyline points="494.0,309.0,498.0,307.0,502.5,307.0,503.0,311.0,503.0,314.5,507.5,320.0" stroke="black" stroke-width="2" fill="none" />
<polyline points="507.0,320.0,505.0,316.0" stroke="black" stroke-width="2" fill="none" />
<polyline points="469.5,596.5,476.5,600.5,476.5,604.5,481.0,606.5,483.5,610.5" stroke="black" stroke-width="2" fill="none" />
<polyline points="509.0,649.5,504.0,652.0,508.0,650.5,511.0,651.5" stroke="black" stroke-width="2" fill="none" />
<polyline points="13.5,227.0,9.5,226.5,5.5,224.5" stroke="black" stroke-width="2" fill="none" />
<polyline points="5.5,224.5,13.0,228.5" stroke="black" stroke-width="2" fill="none" />
<polyline points="34.5,54.5,30.5,52.5" stroke="black" stroke-width="2" fill="none" />
<polyline points="41.0,54.0,41.0,50.0" stroke="black" stroke-width="2" fill="none" />
<polyline points="9.0,44.0,5.5,43.5,1.5,46.0" stroke="black" stroke-width="2" fill="none" />
<polyline points="132.0,39.0,130.5,43.0,133.5,39.5,137.5,39.5,141.5,41.0,145.5,42.0,149.5,42.0,150.0,39.5,154.0,42.0,158.0,42.0,162.0,42.0" stroke="black" stroke-width="2" fill="none" />
<polyline points="164.0,41.5,164.0,37.5" stroke="black" stroke-width="2" fill="none" />
<polyline points="164.0,37.5,168.0,36.5,172.0,37.5,176.0,36.0,180.5,34.0,183.5,33.5,187.5,34.0,191.5,34.0" stroke="black" stroke-width="2" fill="none" />
<polyline points="194.5,29.5,194.5,33.5,199.5,32.0" stroke="black" stroke-width="2" fill="none" />
<polyline points="194.5,29.5,198.5,29.5,202.5,29.5,206.5,29.5,210.5,28.5" stroke="black" stroke-width="2" fill="none" />
<polyline points="214.5,27.0,214.0,31.0,217.5,27.5,221.5,26.0,225.5,26.0,229.5,24.5" stroke="black" stroke-width="2" fill="none" />
<polyline points="227.0,24.5,228.5,20.5" stroke="black" stroke-width="2" fill="none" />
<polyline points="228.5,20.5,232.5,22.0,236.5,22.0,240.5,20.5,244.5,18.5,246.0,16.0,250.0,17.0" stroke="black" stroke-width="2" fill="none" />
</svg>