<svg xmlns="http://www.w3.org/2000/svg" version="1.1"><polyline points="0.5,0.0,0.5,4.0,0.5,8.0,0.5,12.0,0.5,16.0,0.5,20.0,0.5,24.0,0.5,28.0,0.5,32.0,0.5,36.0,0.5,40.0,0.5,44.0,0.5,48.0,0.5,52.0,0.5,56.0,0.5,60.0,0.5,64.0,0.5,68.0,0.5,72.0,0.5,76.0,0.5,80.0,0.5,84.0,0.5,88.0,0.5,92.0,0.5,96.0,0.5,100.0,0.5,104.0,0.5,108.0,0.5,112.0,0.5,116.0,0.5,120.0,0.5,124.0,0.5,128.0,0.5,132.0,0.5,136.0,0.5,140.0,0.5,144.0,0.5,148.0,0.5,152.0,0.5,156.0,0.5,160.0,0.5,164.0,0.5,168.0,0.5,172.0,0.5,176.0,0.5,180.0,0.5,184.0,0.5,188.0,0.5,192.0,0.5,196.0,0.5,200.0,0.5,204.0,0.5,208.0,0.5,212.0,0.5,216.0,0.5,220.0,0.5,224.0,0.5,228.0,0.5,232.0,0.5,236.0,0.5,240.0,0.5,244.0,0.5,248.0,0.5,252.0,0.5,256.0,0.5,260.0,0.5,264.0,0.5,268.0,0.5,272.0,0.5,276.0,0.5,280.0,0.5,284.0,0.5,288.0,0.5,292.0,0.5,296.0,0.5,300.0,0.5,304.0,0.5,308.0,0.5,312.0,0.5,316.0,0.5,320.0,0.5,324.0,0.5,328.0,0.5,332.0,0.5,336.0,0.5,340.0,0.5,344.0,0.5,348.0,0.5,352.0,0.5,356.0,0.5,360.0,0.5,364.0,0.5,368.0,0.5,372.0,0.5,376.0,0.5,380.0" stroke="black" stroke-width="2" fill="none" />
<polyline points="173.0,266.5,177.0,272.0,181.0,281.0,185.0,286.5,189.0,286.5,193.0,286.5,197.0,286.5,201.0,286.5,205.0,286.5,209.0,285.5" stroke="black" stroke-width="2" fill="none" />
<polyline points="210.0,283.0,210.0,283.0,213.0,279.0,214.5,275.0,215.0,271.0,216.5,267.0,217.0,263.0,218.0,259.0,220.0,255.0,221.5,251.0,221.5,247.0,221.0,243.0,219.0,239.0,217.5,235.0" stroke="black" stroke-width="2" fill="none" />
<polyline points="178.5,234.5,179.0,238.5,179.0,242.5,178.5,246.5,177.5,250.5,176.0,254.5,176.0,258.5,177.0,262.5,179.0,266.5,181.5,270.5,183.0,274.5,185.5,278.5" stroke="black" stroke-width="2" fill="none" />
<polyline points="178.5,177.0,182.5,180.0,186.5,182.5,190.5,185.0,194.5,185.0,198.5,185.0,202.5,184.0,206.5,179.0,210.5,173.5" stroke="black" stroke-width="2" fill="none" />
<polyline points="230.5,178.5,234.5,181.5,238.5,183.0,242.5,185.5,246.5,189.0,250.5,190.5,254.5,190.5,258.5,190.5,262.5,189.0" stroke="black" stroke-width="2" fill="none" />
<polyline points="282.0,191.0,284.0,189.0,285.0,185.0,285.5,181.0,285.5,177.0,285.5,173.0,285.5,169.0,285.5,165.0,285.5,161.0,285.0,157.0,285.0,153.0" stroke="black" stroke-width="2" fill="none" />
<polyline points="285.0,153.0,289.0,154.5,293.0,157.5,297.0,161.5,301.0,165.5,305.0,169.0,309.0,170.5,313.0,175.0,317.0,181.0,321.0,182.5" stroke="black" stroke-width="2" fill="none" />
<polyline points="321.5,180.0,320.0,176.0,317.5,172.0,313.5,168.0,307.0,164.0,301.5,160.0,298.5,156.0,292.5,152.0,288.0,148.0,296.0,144.0,302.5,140.0,306.5,136.0,310.5,132.0,308.0,135.5,304.0,138.5,300.0,142.5,296.0,144.0,292.0,145.5,288.0,148.0" stroke="black" stroke-width="2" fill="none" />
<polyline points="285.5,142.5,285.5,138.5,285.5,134.5,285.0,130.5" stroke="black" stroke-width="2" fill="none" />
<polyline points="264.0,141.5,260.0,141.0,256.0,141.0,252.0,141.0,248.0,141.5,244.0,142.5,240.0,143.0,236.0,145.0" stroke="black" stroke-width="2" fill="none" />
<polyline points="239.5,143.0,236.0,147.0,236.0,151.0,236.0,155.0,236.0,159.0,235.0,163.0,234.5,167.0,234.5,171.0,234.5,175.0,240.5,179.0,247.0,183.0" stroke="black" stroke-width="2" fill="none" />
<polyline points="191.0,180.0,185.5,176.0,182.5,172.0,182.5,168.0,182.5,164.0,181.5,160.0,178.5,156.0,180.0,152.0,181.5,148.0,183.0,144.0,182.5,140.0" stroke="black" stroke-width="2" fill="none" />
<polyline points="176.0,130.5,172.0,129.5,168.0,129.5,164.0,130.5,160.0,131.0,156.0,131.0,152.0,131.0,148.0,131.0,144.0,131.0,140.0,132.0,136.0,133.0,132.0,133.0,128.0,133.0,124.0,131.0,120.0,130.5" stroke="black" stroke-width="2" fill="none" />
<polyline points="120.0,130.5,121.5,134.5,124.0,138.5,124.0,142.5,124.0,146.5,124.0,150.5,125.0,154.5,125.0,158.5" stroke="black" stroke-width="2" fill="none" />
<polyline points="125.0,164.0,125.0,168.0,123.0,172.0,121.5,176.0,121.5,180.0,122.5,184.0,124.0,188.0,124.0,192.0,125.0,196.0,125.0,200.0,124.0,204.0,124.0,204.0" stroke="black" stroke-width="2" fill="none" />
<polyline points="125.0,164.0,129.0,164.0,133.0,164.0,137.0,164.0,141.0,164.0,145.0,164.0,149.0,164.0,153.0,163.0" stroke="black" stroke-width="2" fill="none" />
<polyline points="120.0,164.0,116.0,163.0,112.0,163.0,108.0,163.0,104.0,163.0,100.0,162.5" stroke="black" stroke-width="2" fill="none" />
<polyline points="177.0,129.5,176.5,125.5" stroke="black" stroke-width="2" fill="none" />
<polyline points="214.5,133.5,214.5,137.5,213.5,141.5,213.5,145.5,213.0,149.5,213.0,153.5,213.0,157.5,213.0,161.5,213.0,165.5,213.0,169.5,210.5,173.5,208.0,177.5,205.0,181.5" stroke="black" stroke-width="2" fill="none" />
<polyline points="0.0,0.5,4.0,0.5,8.0,0.5,12.0,0.5,16.0,0.5,20.0,0.5,24.0,0.5,28.0,0.5,32.0,0.5,36.0,0.5,40.0,0.5,44.0,0.5,48.0,0.5,52.0,0.5,56.0,0.5,60.0,0.5,64.0,0.5,68.0,0.5,72.0,0.5,76.0,0.5,80.0,0.5,84.0,0.5,88.0,0.5,92.0,0.5,96.0,0.5,100.0,0.5,104.0,0.5,108.0,0.5,112.0,0.5,116.0,0.5,120.0,0.5,124.0,0.5,128.0,0.5,132.0,0.5,136.0,0.5,140.0,0.5,144.0,0.5,148.0,0.5,152.0,0.5,156.0,0.5,160.0,0.5,164.0,0.5,168.0,0.5,172.0,0.5,176.0,0.5,180.0,0.5,184.0,0.5,188.0,0.5,192.0,0.5,196.0,0.5,200.0,0.5,204.0,0.5,208.0,0.5,212.0,0.5,216.0,0.5,220.0,0.5,224.0,0.5,228.0,0.5,232.0,0.5,236.0,0.5,240.0,0.5,244.0,0.5,248.0,0.5,252.0,0.5,256.0,0.5,260.0,0.5,264.0,0.5,268.0,0.5,272.0,0.5,276.0,0.5,280.0,0.5,284.0,0.5,288.0,0.5,292.0,0.5,296.0,0.5,300.0,0.5,304.0,0.5,308.0,0.5,312.0,0.5,316.0,0.5,320.0,0.5,324.0,0.5,328.0,0.5,332.0,0.5,336.0,0.5,340.0,0.5,344.0,0.5,348.0,0.5,352.0,0.5,356.0,0.5,360.0,0.5,364.0,0.5,368.0,0.5,372.0,0.5,376.0,0.5,380.0,0.5,384.0,0.5,388.0,0.5,392.0,0.5,396.0,0.5,400.0,0.5,404.0,0.5,408.0,0.5,412.0,0.5,416.0,0.5,420.0,0.5,424.0,0.5,428.0,0.5,432.0,0.5,436.0,0.5,440.0,0.5,444.0,0.5,448.0,0.5,452.0,0.5,456.0,0.5,460.0,0.5,464.0,0.5,468.0,0.5,472.0,0.5,476.0,0.5,480.0,0.5,484.0,0.5,488.0,0.5,492.0,0.5,496.0,0.5,500.0,0.5,504.0,0.5,508.0,0.5" stroke="black" stroke-width="2" fill="none" />
</svg>